<?xml version="1.0" encoding="utf-8"?>
<!-- Generator: Adobe Illustrator 22.0.1, SVG Export Plug-In . SVG Version: 6.00 Build 0)  -->
<svg version="1.1" id="Layer_1" xmlns="http://www.w3.org/2000/svg" xmlns:xlink="http://www.w3.org/1999/xlink" x="0px" y="0px"
	 viewBox="0 0 470.6 431.4" style="enable-background:new 0 0 470.6 431.4;" xml:space="preserve">
<style type="text/css">
	.st0{fill:#FFFFFF;}
</style>
<g>
	<g>
		<g>
			<path class="st0" d="M451.8,6.1c-19.4,18.7-38.9,37.5-58.3,56.2c-31,29.9-61.9,59.7-92.9,89.6c-7.1,6.8-14.2,13.7-21.3,20.5
				c4.7,0,9.4,0,14.1,0c-27.2-26.4-54.3-52.8-81.5-79.2c-3.9-3.8-7.7-7.5-11.6-11.3c-3.8-3.7-10.4-4-14.1,0
				c-17.4,18.1-34.8,36.3-52.2,54.4c-27.5,28.9-55.1,57.6-82.7,86.4c-6.4,6.6-12.7,13.3-19.1,19.9c-8.9,9.3,5.2,23.5,14.1,14.1
				c17.4-18.1,34.8-36.3,52.2-54.4c27.6-28.8,55.2-57.6,82.8-86.3c6.4-6.6,12.7-13.3,19.1-19.9c-4.7,0-9.4,0-14.1,0
				c27.2,26.4,54.3,52.8,81.5,79.2c3.9,3.8,7.7,7.5,11.6,11.3s10.2,3.8,14.1,0c19.4-18.7,38.9-37.5,58.3-56.2
				c31-29.9,61.9-59.7,92.9-89.6c7.1-6.8,14.2-13.7,21.3-20.5C475.2,11.3,461.1-2.8,451.8,6.1L451.8,6.1z"/>
		</g>
	</g>
	<g>
		<g>
			<path class="st0" d="M350.6,20c32.1,0,64.1,0,96.2,0c4.6,0,9.2,0,13.8,0c-3.3-3.3-6.7-6.7-10-10c0,32.1,0,64.1,0,96.2
				c0,4.6,0,9.2,0,13.8c0,12.9,20,12.9,20,0c0-32.1,0-64.1,0-96.2c0-4.6,0-9.2,0-13.8c0-5.4-4.6-10-10-10c-32.1,0-64.1,0-96.2,0
				c-4.6,0-9.2,0-13.8,0C337.7,0,337.7,20,350.6,20L350.6,20z"/>
		</g>
	</g>
</g>
<g>
	<g>
		<path class="st0" d="M69.1,411.4c-19.7,0-39.4,0-59.1,0c3.3,3.3,6.7,6.7,10,10c0-39.2,0-78.3,0-117.5c0-5.6,0-11.1,0-16.7
			c-3.3,3.3-6.7,6.7-10,10c19.7,0,39.4,0,59.1,0c-3.3-3.3-6.7-6.7-10-10c0,39.2,0,78.3,0,117.5c0,5.6,0,11.1,0,16.7
			c0,12.9,20,12.9,20,0c0-39.2,0-78.3,0-117.5c0-5.6,0-11.1,0-16.7c0-5.4-4.6-10-10-10c-19.7,0-39.4,0-59.1,0c-5.4,0-10,4.6-10,10
			c0,39.2,0,78.3,0,117.5c0,5.6,0,11.1,0,16.7c0,5.4,4.6,10,10,10c19.7,0,39.4,0,59.1,0C82,431.4,82,411.4,69.1,411.4z"/>
	</g>
</g>
<g>
	<rect x="144.7" y="189.3" class="st0" width="62.6" height="232.1"/>
	<g>
		<path class="st0" d="M207.4,416.2c-20.9,0-41.8,0-62.6,0c1.7,1.7,3.5,3.5,5.2,5.2c0-26.1,0-52.2,0-78.3c0-41.6,0-83.3,0-124.9
			c0-9.6,0-19.3,0-28.9c-1.7,1.7-3.5,3.5-5.2,5.2c20.9,0,41.8,0,62.6,0c-1.7-1.7-3.5-3.5-5.2-5.2c0,26.1,0,52.2,0,78.3
			c0,41.6,0,83.3,0,124.9c0,9.6,0,19.3,0,28.9c0,6.7,10.4,6.7,10.4,0c0-26.1,0-52.2,0-78.3c0-41.6,0-83.3,0-124.9
			c0-9.6,0-19.3,0-28.9c0-2.8-2.4-5.2-5.2-5.2c-20.9,0-41.8,0-62.6,0c-2.8,0-5.2,2.4-5.2,5.2c0,26.1,0,52.2,0,78.3
			c0,41.6,0,83.3,0,124.9c0,9.6,0,19.3,0,28.9c0,2.8,2.4,5.2,5.2,5.2c20.9,0,41.8,0,62.6,0C214.1,426.6,214.1,416.2,207.4,416.2z"/>
	</g>
</g>
<g>
	<g>
		<path class="st0" d="M337.4,411.4c-20.6,0-41.2,0-61.8,0c3.3,3.3,6.7,6.7,10,10c0-19.3,0-38.6,0-57.8c0-30.8,0-61.6,0-92.4
			c0-7.1,0-14.3,0-21.4c-3.3,3.3-6.7,6.7-10,10c20.6,0,41.2,0,61.8,0c-3.3-3.3-6.7-6.7-10-10c0,19.3,0,38.6,0,57.8
			c0,30.8,0,61.6,0,92.4c0,7.1,0,14.3,0,21.4c0,12.9,20,12.9,20,0c0-19.3,0-38.6,0-57.8c0-30.8,0-61.6,0-92.4c0-7.1,0-14.3,0-21.4
			c0-5.4-4.6-10-10-10c-20.6,0-41.2,0-61.8,0c-5.4,0-10,4.6-10,10c0,19.3,0,38.6,0,57.8c0,30.8,0,61.6,0,92.4c0,7.1,0,14.3,0,21.4
			c0,5.4,4.6,10,10,10c20.6,0,41.2,0,61.8,0C350.2,431.4,350.3,411.4,337.4,411.4z"/>
	</g>
</g>
<g>
	<rect x="394.7" y="177.8" class="st0" width="65.8" height="243.5"/>
	<g>
		<path class="st0" d="M460.6,416.2c-21.9,0-43.9,0-65.8,0c1.7,1.7,3.5,3.5,5.2,5.2c0-27.5,0-55,0-82.5c0-43.6,0-87.3,0-130.9
			c0-10.1,0-20.1,0-30.2c-1.7,1.7-3.5,3.5-5.2,5.2c21.9,0,43.9,0,65.8,0c-1.7-1.7-3.5-3.5-5.2-5.2c0,27.5,0,55,0,82.5
			c0,43.6,0,87.3,0,130.9c0,10.1,0,20.1,0,30.2c0,6.7,10.4,6.7,10.4,0c0-27.5,0-55,0-82.5c0-43.6,0-87.3,0-130.9
			c0-10.1,0-20.1,0-30.2c0-2.8-2.4-5.2-5.2-5.2c-21.9,0-43.9,0-65.8,0c-2.8,0-5.2,2.4-5.2,5.2c0,27.5,0,55,0,82.5
			c0,43.6,0,87.3,0,130.9c0,10.1,0,20.1,0,30.2c0,2.8,2.4,5.2,5.2,5.2c21.9,0,43.9,0,65.8,0C467.3,426.6,467.3,416.2,460.6,416.2z"
			/>
	</g>
</g>
</svg>
