<?xml version="1.0" encoding="utf-8"?>
<!-- Generator: Adobe Illustrator 22.0.1, SVG Export Plug-In . SVG Version: 6.00 Build 0)  -->
<svg version="1.1" id="Layer_1" xmlns="http://www.w3.org/2000/svg" xmlns:xlink="http://www.w3.org/1999/xlink" x="0px" y="0px"
	 viewBox="0 0 96.3 76.6" style="enable-background:new 0 0 96.3 76.6;" xml:space="preserve">
<style type="text/css">
	.st0{fill:#FFFFFF;}
</style>
<path class="st0" d="M56.6,38c-0.5-0.5-1.2-0.5-1.7,0s-0.5,1.2,0,1.7l13.6,13.6c1,1,1,2.7,0,3.8c-1,1-2.7,1-3.8,0L51.2,43.5
	c-0.5-0.5-1.2-0.5-1.7,0s-0.5,1.2,0,1.7l13.6,13.6l3.6,3.6c0.5,0.5,0.8,1.2,0.8,1.9c0,0.7-0.3,1.4-0.8,1.9c-1,1-2.8,1-3.8,0
	l-1.8-1.8L46.6,49.8c-0.5-0.5-1.2-0.5-1.7,0c-0.5,0.5-0.5,1.2,0,1.7L59.4,66c1,1,1,2.7,0,3.8c-1,1-2.7,1-3.8,0l-1.8-1.8L42.1,56.1
	c-0.5-0.5-1.2-0.5-1.7,0s-0.5,1.2,0,1.7l11.8,11.8l0,0c0.5,0.5,0.8,1.2,0.8,1.9c0,0.7-0.3,1.4-0.8,1.9c-1,1-2.7,1-3.8,0L26.6,51.6
	c-3.3-3.3-4.1-7.5-4.7-11.3c-0.5-3.1-1-6-3-8c-0.5-0.5-1.2-0.5-1.7,0s-0.5,1.2,0,1.7c1.4,1.4,1.8,3.9,2.3,6.7
	c0.7,3.9,1.5,8.6,5.4,12.5L46.8,75c1,1,2.3,1.5,3.5,1.5s2.6-0.5,3.5-1.5c0.7-0.7,1.2-1.7,1.4-2.7c1.9,1,4.3,0.7,5.8-0.9
	c0.8-0.8,1.2-1.7,1.4-2.7c0.7,0.4,1.5,0.6,2.3,0.6l0,0c1.3,0,2.6-0.5,3.6-1.5c0.9-0.9,1.5-2.2,1.5-3.5c0-1.3-0.5-2.6-1.5-3.6
	l-0.6-0.6c0.9-0.2,1.7-0.7,2.4-1.3c2-2,2-5.1,0-7.1L56.6,38z M77.5,27.2c-2.1,2.1-2.8,5.4-3.5,8.7c-0.6,2.9-1.3,6-2.8,7.5l-1.8,1.8
	c-0.5,0.5-0.5,1.2,0,1.7c0.2,0.2,0.5,0.3,0.8,0.3c0.3,0,0.6-0.1,0.8-0.3l1.8-1.8c2.1-2.1,2.8-5.4,3.5-8.7c0.6-2.9,1.3-6,2.8-7.5
	c0.5-0.5,0.5-1.2,0-1.7C78.7,26.8,78,26.8,77.5,27.2z M29.7,35.2c0,0.7,0.3,1.3,0.7,1.7l0.9,0.9c1.2,1.2,2.8,1.8,4.5,1.8
	c1.7,0,3.3-0.7,4.5-1.8l6.4-6.4c5.5,4.6,13.7,4.4,18.9-0.8c0.5-0.5,0.5-1.2,0-1.7c-0.5-0.5-1.2-0.5-1.7,0c-4.5,4.5-11.9,4.5-16.5,0
	c-0.5-0.5-1.2-0.5-1.7,0l-7.2,7.2c-1.5,1.5-4.1,1.5-5.6,0l-0.9-0.9v-0.1l15.4-15.4c1.5-1.5,2.8-1.5,4.6-1.5c1.9,0,4.1,0,6.3-2.2
	l3.6-3.6c0.5-0.5,0.5-1.2,0-1.7c-0.5-0.5-1.2-0.5-1.7,0l-3.6,3.6c-1.5,1.5-2.9,1.5-4.6,1.5c-1.9,0-4.1,0-6.3,2.2L30.5,33.5
	C30,34,29.7,34.6,29.7,35.2z M33.2,16.3c-0.5,0.5-0.5,1.2,0,1.7l3.6,3.6c0.2,0.2,0.5,0.3,0.8,0.3s0.6-0.1,0.8-0.3
	c0.5-0.5,0.5-1.2,0-1.7l-3.6-3.6C34.4,15.8,33.6,15.8,33.2,16.3z M93.3,10.9c-0.5-0.5-1.2-0.5-1.7,0c-0.5,0.5-0.5,1.2,0,1.7
	c1.7,1.7,2.5,3.2,2.3,4.6c-0.2,1.6-1.6,2.6-1.6,2.6c-0.1,0-0.1,0.1-0.2,0.1l-7.4,6.6L64.6,6.3L68.9,2c0.5-0.5,0.5-1.2,0-1.7
	c-0.5-0.5-1.2-0.5-1.7,0l-5.1,5.1c-0.2,0.2-0.3,0.5-0.3,0.8c0,0.3,0.1,0.6,0.3,0.8l21.8,21.8c0.2,0.2,0.5,0.3,0.8,0.3
	c0.3,0,0.6-0.1,0.8-0.3l8.2-7.3c0.5-0.3,2.3-1.8,2.6-4.2C96.5,15.3,95.5,13.1,93.3,10.9z M34.5,11.4c0-0.3-0.1-0.6-0.3-0.8l-5.1-5.1
	c-0.5-0.5-1.2-0.5-1.7,0s-0.5,1.2,0,1.7l4.3,4.3L11.5,31.5l-7.4-6.6c0,0-0.1-0.1-0.1-0.1c0,0-1.5-1-1.6-2.6
	c-0.1-1.4,0.6-2.9,2.3-4.6c0.5-0.5,0.5-1.2,0-1.7s-1.2-0.5-1.7,0c-2.2,2.2-3.2,4.4-3,6.6c0.3,2.5,2.2,3.9,2.6,4.2l8.1,7.3
	c0.2,0.2,0.5,0.3,0.8,0.3c0.3,0,0.6-0.1,0.8-0.3l21.8-21.8C34.4,12,34.5,11.7,34.5,11.4z M40.7,74c-0.7,0.4-2,0.4-3.2-0.7
	c-1.1-1.1-1.1-2.5-0.7-3.1c0.3-0.5,0.2-1.2-0.3-1.6c-0.5-0.4-1.1-0.3-1.6,0.1c-1,1-2.7,1-3.8,0c-0.5-0.5-0.8-1.2-0.8-1.9
	c0-0.7,0.3-1.4,0.8-1.9c0.5-0.5,0.5-1.2,0-1.7c-0.5-0.5-1.2-0.5-1.7,0l-0.9,0.9c-1,1-2.7,1-3.8,0c-0.5-0.5-0.8-1.2-0.8-1.9
	s0.3-1.4,0.8-1.9l0.9-0.9c0.4-0.4,0.5-1.1,0.1-1.5s-1-0.6-1.5-0.3c-0.7,0.4-2,0.4-3.1-0.7c-1.2-1.2-1.2-2.5-0.8-3
	c0.4-0.5,0.2-1.3-0.3-1.6c-0.5-0.4-1.3-0.2-1.6,0.3c-1,1.5-1,4,1,6c0.8,0.8,1.7,1.3,2.6,1.5c-0.3,0.7-0.5,1.4-0.5,2.2
	c0,1.3,0.5,2.6,1.5,3.6c1.3,1.3,3.2,1.7,4.9,1.3c0.1,1.2,0.6,2.4,1.5,3.2c1.3,1.3,3.1,1.7,4.7,1.3c0.1,1.1,0.6,2.2,1.6,3.2
	c1.2,1.2,2.5,1.6,3.8,1.6c0.8,0,1.5-0.2,2.1-0.5c0.6-0.3,0.8-1,0.5-1.6C42,74,41.3,73.7,40.7,74z"/>
</svg>
