<?xml version="1.0" encoding="utf-8"?>
<!-- Generator: Adobe Illustrator 22.0.1, SVG Export Plug-In . SVG Version: 6.00 Build 0)  -->
<svg version="1.1" id="Layer_1" xmlns="http://www.w3.org/2000/svg" xmlns:xlink="http://www.w3.org/1999/xlink" x="0px" y="0px"
	 viewBox="0 0 60 60" style="enable-background:new 0 0 60 60;" xml:space="preserve">
<style type="text/css">
	.st0{fill:#FFFFFF;}
</style>
<path class="st0" d="M15,2c-0.5,0-1,0.1-1.5,0.2C12,0.8,10,0,8,0C3.6,0,0,3.6,0,8c0,0.6,0.4,1,1,1h19c0.6,0,1-0.4,1-1
	C21,4.7,18.3,2,15,2z M2.1,7C2.6,4.2,5,2,8,2c1.7,0,3.3,0.7,4.5,2c0.3,0.3,0.7,0.4,1.1,0.3C16,3.4,18.3,4.8,18.9,7L2.1,7L2.1,7z"/>
<rect x="15" y="11" class="st0" width="2" height="2"/>
<rect x="19" y="11" class="st0" width="2" height="2"/>
<rect x="23" y="11" class="st0" width="2" height="2"/>
<path class="st0" d="M52,29v-7v-4V9.6l7.4-3.7C59.8,5.7,60,5.4,60,5s-0.2-0.7-0.6-0.9l-8-4c-0.3-0.2-0.7-0.1-1,0
	C50.2,0.3,50,0.7,50,1v8v8h-7.5c1-1.1,1.5-2.5,1.5-4c0-3.3-2.7-6-6-6s-6,2.7-6,6c0,1.8,0.8,3.4,2.1,4.5l-8.6,7.7L19.8,28L17,27.5
	c1.2-1.1,2-2.7,2-4.5c0-3.3-2.7-6-6-6s-6,2.7-6,6c0,1.8,0.8,3.5,2.1,4.6c0,0,0,0,0,0.1L6,35.7c-0.6,1.5-0.4,3.1,0.4,4.4
	c0.2,0.3,0.3,0.5,0.5,0.7l-2.7,4.5l-3.9,3.9c-0.4,0.4-0.4,1,0,1.4l3,3C3.5,53.9,3.7,54,4,54s0.5-0.1,0.7-0.3l5-5
	c0,0,0.1-0.1,0.1-0.2l3.8-5.8l1.3,0.1V47h-1c-0.6,0-1,0.4-1,1v7.2L0.8,58C0.3,58.1,0,58.5,0,59v1h2v-0.2L14.2,57
	c0.5-0.1,0.8-0.5,0.8-1v-7h1h5h9c0.3,0,0.6-0.1,0.7-0.3l8.7-9.7H41h5h14v-2H47v-7.3c0-1.5-1.1-2.7-2.5-3l-3.3-0.6l0.6-3.2H50v6H52z
	 M52,7.4V2.6L56.8,5L52,7.4z M38,9c2.2,0,4,1.8,4,4s-1.8,4-4,4s-4-1.8-4-4S35.8,9,38,9z M32.6,21.5l-1.5,4l-2.8,2.1l-0.9-1.4
	L32.6,21.5z M33.5,32c0.5,0.2,1.1,0.4,1.6,0.4l1.2,0.1l-3.2,4.8L29,41.6L27.4,40l3.3-3.3c0.1-0.1,0.1-0.1,0.2-0.2L33.5,32z M13,19
	c2.2,0,4,1.8,4,4s-1.8,4-4,4s-4-1.8-4-4S10.8,19,13,19z M8.2,47.4L4,51.6L2.4,50l3.3-3.3c0.1-0.1,0.1-0.1,0.2-0.2L8.5,42
	c0.5,0.2,1.1,0.4,1.6,0.4l1.2,0.1L8.2,47.4z M17,47v-5c0-0.5-0.4-0.9-0.9-1l-5.7-0.5c-0.9-0.1-1.8-0.6-2.3-1.4
	c-0.5-0.8-0.6-1.8-0.3-2.7l2.9-7.4h3.2l5.9,1c0.2,0,0.4,0,0.6-0.1l5.2-2.6l0.9,1.4L20.7,32H16c-0.5,0-0.9,0.3-1,0.8l-1,4
	c-0.1,0.3,0,0.6,0.1,0.8c0.2,0.2,0.4,0.4,0.7,0.4l4.3,0.7c0.5,0.1,0.8,0.5,0.8,1V47H17z M39,37c-0.3,0-0.6,0.1-0.7,0.3L29.6,47H22
	v-7.3c0-1.5-1.1-2.7-2.5-3l-3.3-0.5l0.5-2.2H21c0.2,0,0.3,0,0.5-0.1l7-4c0,0,0,0,0,0c0,0,0,0,0.1,0l2.1-1.6c0.1,0.7,0.3,1.3,0.7,1.9
	c0.2,0.3,0.3,0.5,0.5,0.7l-2.7,4.5l-3.9,3.9c-0.4,0.4-0.4,1,0,1.4l3,3c0.2,0.2,0.5,0.3,0.7,0.3s0.5-0.1,0.7-0.3l5-5
	c0,0,0.1-0.1,0.1-0.2l3.8-5.8l1.3,0.1V37H39z M41,21c-0.5,0-0.9,0.3-1,0.8l-1,5c-0.1,0.3,0,0.5,0.2,0.8c0.2,0.2,0.4,0.4,0.7,0.4
	l4.3,0.7c0.5,0.1,0.8,0.5,0.8,1V37h-3v-5c0-0.5-0.4-0.9-0.9-1l-5.7-0.5c-0.9-0.1-1.8-0.6-2.3-1.4c-0.5-0.8-0.6-1.8-0.3-2.7l2.9-7.4
	H50v2H41z"/>
</svg>
